<svg width="22" height="22" viewBox="0 0 22 22" fill="none" xmlns="http://www.w3.org/2000/svg">
<path d="M16 1H6C3.23858 1 1 3.23858 1 6V16C1 18.7614 3.23858 21 6 21H16C18.7614 21 21 18.7614 21 16V6C21 3.23858 18.7614 1 16 1Z" stroke="white" stroke-width="2" stroke-linecap="round" stroke-linejoin="round"/>
<path d="M14.9997 10.3701C15.1231 11.2023 14.981 12.0523 14.5935 12.7991C14.206 13.5459 13.5929 14.1515 12.8413 14.5297C12.0898 14.908 11.2382 15.0397 10.4075 14.906C9.57683 14.7723 8.80947 14.3801 8.21455 13.7852C7.61962 13.1903 7.22744 12.4229 7.09377 11.5923C6.96011 10.7616 7.09177 9.90995 7.47003 9.15843C7.84829 8.40691 8.45389 7.7938 9.20069 7.4063C9.94749 7.0188 10.7975 6.87665 11.6297 7.00006C12.4786 7.12594 13.2646 7.52152 13.8714 8.12836C14.4782 8.73521 14.8738 9.52113 14.9997 10.3701Z" stroke="white" stroke-width="2" stroke-linecap="round" stroke-linejoin="round"/>
<path d="M16.5 5.5H16.51" stroke="white" stroke-width="2" stroke-linecap="round" stroke-linejoin="round"/>
</svg>
