<svg width="335" height="75" viewBox="0 0 335 75" fill="none" xmlns="http://www.w3.org/2000/svg">
<path d="M90.365 55.045C92.1417 55.045 93.3983 54.8717 94.135 54.525C94.8717 54.1783 95.24 53.5067 95.24 52.51C95.24 51.73 94.7633 51.0583 93.81 50.495C92.8567 49.8883 91.405 49.2167 89.455 48.48C87.9383 47.9167 86.5517 47.3317 85.295 46.725C84.0817 46.1183 83.0417 45.4033 82.175 44.58C81.3083 43.7133 80.6367 42.695 80.16 41.525C79.6833 40.355 79.445 38.9467 79.445 37.3C79.445 34.0933 80.6367 31.5583 83.02 29.695C85.4033 27.8317 88.675 26.9 92.835 26.9C94.915 26.9 96.9083 27.095 98.815 27.485C100.722 27.8317 102.238 28.2217 103.365 28.655L101.675 36.195C100.548 35.805 99.3133 35.4583 97.97 35.155C96.67 34.8517 95.1967 34.7 93.55 34.7C90.5167 34.7 89 35.545 89 37.235C89 37.625 89.065 37.9717 89.195 38.275C89.325 38.5783 89.585 38.8817 89.975 39.185C90.365 39.445 90.885 39.7483 91.535 40.095C92.2283 40.3983 93.095 40.745 94.135 41.135C96.2583 41.915 98.0133 42.695 99.4 43.475C100.787 44.2117 101.87 45.035 102.65 45.945C103.473 46.8117 104.037 47.7867 104.34 48.87C104.687 49.9533 104.86 51.21 104.86 52.64C104.86 56.02 103.582 58.5767 101.025 60.31C98.5117 62.0433 94.9367 62.91 90.3 62.91C87.2667 62.91 84.7317 62.65 82.695 62.13C80.7017 61.61 79.315 61.1767 78.535 60.83L80.16 52.965C81.8067 53.615 83.4967 54.135 85.23 54.525C86.9633 54.8717 88.675 55.045 90.365 55.045ZM110.473 45.165C110.473 42.1317 110.928 39.4883 111.838 37.235C112.791 34.9383 114.026 33.0317 115.543 31.515C117.06 29.9983 118.793 28.85 120.743 28.07C122.736 27.29 124.773 26.9 126.853 26.9C131.706 26.9 135.541 28.395 138.358 31.385C141.175 34.3317 142.583 38.6867 142.583 44.45C142.583 45.0133 142.561 45.6417 142.518 46.335C142.475 46.985 142.431 47.57 142.388 48.09H120.418C120.635 50.0833 121.566 51.665 123.213 52.835C124.86 54.005 127.07 54.59 129.843 54.59C131.62 54.59 133.353 54.4383 135.043 54.135C136.776 53.7883 138.185 53.3767 139.268 52.9L140.568 60.765C140.048 61.025 139.355 61.285 138.488 61.545C137.621 61.805 136.646 62.0217 135.563 62.195C134.523 62.4117 133.396 62.585 132.183 62.715C130.97 62.845 129.756 62.91 128.543 62.91C125.466 62.91 122.78 62.455 120.483 61.545C118.23 60.635 116.345 59.4 114.828 57.84C113.355 56.2367 112.25 54.3517 111.513 52.185C110.82 50.0183 110.473 47.6783 110.473 45.165ZM133.223 41.46C133.18 40.6367 133.028 39.835 132.768 39.055C132.551 38.275 132.183 37.5817 131.663 36.975C131.186 36.3683 130.558 35.87 129.778 35.48C129.041 35.09 128.11 34.895 126.983 34.895C125.9 34.895 124.968 35.09 124.188 35.48C123.408 35.8267 122.758 36.3033 122.238 36.91C121.718 37.5167 121.306 38.2317 121.003 39.055C120.743 39.835 120.548 40.6367 120.418 41.46H133.223ZM148.432 45.165C148.432 42.1317 148.887 39.4883 149.797 37.235C150.75 34.9383 151.985 33.0317 153.502 31.515C155.019 29.9983 156.752 28.85 158.702 28.07C160.695 27.29 162.732 26.9 164.812 26.9C169.665 26.9 173.5 28.395 176.317 31.385C179.134 34.3317 180.542 38.6867 180.542 44.45C180.542 45.0133 180.52 45.6417 180.477 46.335C180.434 46.985 180.39 47.57 180.347 48.09H158.377C158.594 50.0833 159.525 51.665 161.172 52.835C162.819 54.005 165.029 54.59 167.802 54.59C169.579 54.59 171.312 54.4383 173.002 54.135C174.735 53.7883 176.144 53.3767 177.227 52.9L178.527 60.765C178.007 61.025 177.314 61.285 176.447 61.545C175.58 61.805 174.605 62.0217 173.522 62.195C172.482 62.4117 171.355 62.585 170.142 62.715C168.929 62.845 167.715 62.91 166.502 62.91C163.425 62.91 160.739 62.455 158.442 61.545C156.189 60.635 154.304 59.4 152.787 57.84C151.314 56.2367 150.209 54.3517 149.472 52.185C148.779 50.0183 148.432 47.6783 148.432 45.165ZM171.182 41.46C171.139 40.6367 170.987 39.835 170.727 39.055C170.51 38.275 170.142 37.5817 169.622 36.975C169.145 36.3683 168.517 35.87 167.737 35.48C167 35.09 166.069 34.895 164.942 34.895C163.859 34.895 162.927 35.09 162.147 35.48C161.367 35.8267 160.717 36.3033 160.197 36.91C159.677 37.5167 159.265 38.2317 158.962 39.055C158.702 39.835 158.507 40.6367 158.377 41.46H171.182ZM189.056 62V16.955H216.226V22.35H195.361V35.935H213.886V41.265H195.361V62H189.056ZM233.718 62.65C229.991 62.5633 227.348 61.7617 225.788 60.245C224.228 58.7283 223.448 56.3667 223.448 53.16V12.6L229.493 11.56V52.185C229.493 53.1817 229.58 54.005 229.753 54.655C229.926 55.305 230.208 55.825 230.598 56.215C230.988 56.605 231.508 56.9083 232.158 57.125C232.808 57.2983 233.61 57.45 234.563 57.58L233.718 62.65ZM239.466 45.165C239.466 42.175 239.9 39.575 240.766 37.365C241.633 35.1117 242.781 33.2483 244.211 31.775C245.641 30.3017 247.288 29.1967 249.151 28.46C251.015 27.7233 252.921 27.355 254.871 27.355C259.421 27.355 262.91 28.785 265.336 31.645C267.763 34.4617 268.976 38.7733 268.976 44.58C268.976 44.84 268.976 45.1867 268.976 45.62C268.976 46.01 268.955 46.3783 268.911 46.725H245.771C246.031 50.235 247.05 52.9 248.826 54.72C250.603 56.54 253.376 57.45 257.146 57.45C259.27 57.45 261.046 57.2767 262.476 56.93C263.95 56.54 265.055 56.1717 265.791 55.825L266.636 60.895C265.9 61.285 264.6 61.6967 262.736 62.13C260.916 62.5633 258.836 62.78 256.496 62.78C253.55 62.78 250.993 62.3467 248.826 61.48C246.703 60.57 244.948 59.335 243.561 57.775C242.175 56.215 241.135 54.3733 240.441 52.25C239.791 50.0833 239.466 47.7217 239.466 45.165ZM262.671 41.85C262.715 39.12 262.021 36.8883 260.591 35.155C259.205 33.3783 257.276 32.49 254.806 32.49C253.42 32.49 252.185 32.7717 251.101 33.335C250.061 33.855 249.173 34.5483 248.436 35.415C247.7 36.2817 247.115 37.2783 246.681 38.405C246.291 39.5317 246.031 40.68 245.901 41.85H262.671ZM275.775 45.165C275.775 42.175 276.208 39.575 277.075 37.365C277.942 35.1117 279.09 33.2483 280.52 31.775C281.95 30.3017 283.597 29.1967 285.46 28.46C287.323 27.7233 289.23 27.355 291.18 27.355C295.73 27.355 299.218 28.785 301.645 31.645C304.072 34.4617 305.285 38.7733 305.285 44.58C305.285 44.84 305.285 45.1867 305.285 45.62C305.285 46.01 305.263 46.3783 305.22 46.725H282.08C282.34 50.235 283.358 52.9 285.135 54.72C286.912 56.54 289.685 57.45 293.455 57.45C295.578 57.45 297.355 57.2767 298.785 56.93C300.258 56.54 301.363 56.1717 302.1 55.825L302.945 60.895C302.208 61.285 300.908 61.6967 299.045 62.13C297.225 62.5633 295.145 62.78 292.805 62.78C289.858 62.78 287.302 62.3467 285.135 61.48C283.012 60.57 281.257 59.335 279.87 57.775C278.483 56.215 277.443 54.3733 276.75 52.25C276.1 50.0833 275.775 47.7217 275.775 45.165ZM298.98 41.85C299.023 39.12 298.33 36.8883 296.9 35.155C295.513 33.3783 293.585 32.49 291.115 32.49C289.728 32.49 288.493 32.7717 287.41 33.335C286.37 33.855 285.482 34.5483 284.745 35.415C284.008 36.2817 283.423 37.2783 282.99 38.405C282.6 39.5317 282.34 40.68 282.21 41.85H298.98ZM319.624 28.2H332.429V33.27H319.624V48.87C319.624 50.56 319.754 51.9683 320.014 53.095C320.274 54.1783 320.664 55.045 321.184 55.695C321.704 56.3017 322.354 56.735 323.134 56.995C323.914 57.255 324.824 57.385 325.864 57.385C327.684 57.385 329.135 57.19 330.219 56.8C331.345 56.3667 332.125 56.0633 332.559 55.89L333.729 60.895C333.122 61.1983 332.06 61.5667 330.544 62C329.027 62.4767 327.294 62.715 325.344 62.715C323.047 62.715 321.14 62.4333 319.624 61.87C318.15 61.2633 316.959 60.375 316.049 59.205C315.139 58.035 314.489 56.605 314.099 54.915C313.752 53.1817 313.579 51.1883 313.579 48.935V18.775L319.624 17.735V28.2Z" fill="white"/>
<path d="M65.4333 30.6241C61.2795 14.2833 46.9266 2.48752 30.0795 2.0144C21.1729 1.76428 11.8007 4.71944 4.97708 15.0606C-7.22093 33.5467 5.72668 46.3211 14.7534 52.3912C19.1144 55.3297 23.0439 58.8631 26.4281 62.8889C32.5254 70.1273 44.2551 79.1221 58.2247 65.0287C68.3499 54.8137 68.2002 41.5087 65.4333 30.6241Z" fill="#F3F3F3"/>
<path d="M12.7113 42.2808L12.7758 42.4074L12.9024 42.3429L13.1744 42.2042L13.301 42.1397L13.2365 42.0132C12.959 41.4684 12.7011 40.9055 12.4698 40.3403L12.416 40.2087L12.2845 40.2626L12.0021 40.3783L11.8707 40.4321L11.9244 40.5635C12.1617 41.1438 12.4265 41.7215 12.7113 42.2808ZM11.2826 38.7869L11.3253 38.9224L11.4608 38.8796L11.7519 38.7878L11.8873 38.7451L11.8446 38.6097C11.6611 38.027 11.4997 37.4293 11.365 36.8332L11.3337 36.6946L11.1951 36.7259L10.8973 36.7933L10.7588 36.8247L10.7901 36.9632C10.9285 37.5751 11.0941 38.1887 11.2826 38.7869ZM10.4505 35.105L10.4703 35.2457L10.611 35.226L10.9132 35.1835L11.0538 35.1637L11.0341 35.0231C10.9493 34.419 10.8884 33.8029 10.8533 33.1918L10.8452 33.0499L10.7033 33.0581L10.3986 33.0757L10.2568 33.0839L10.2649 33.2257C10.3011 33.8528 10.3634 34.485 10.4505 35.105ZM10.233 31.3374L10.2296 31.4794L10.3717 31.4827L10.6767 31.4899L10.6801 31.3478L10.8221 31.3512C10.8365 30.7392 10.8763 30.1214 10.9403 29.5151L10.9552 29.3738L10.8139 29.3589L10.5103 29.3268L10.369 29.3119L10.3542 29.4532C10.2885 30.0755 10.2478 30.7094 10.233 31.3374ZM10.6294 27.585L10.6029 27.7246L10.7425 27.7511L11.0423 27.808L11.0688 27.6685L11.2084 27.695C11.3224 27.0948 11.4628 26.4919 11.626 25.9033L11.664 25.7664L11.5271 25.7285L11.2329 25.6469L11.096 25.6089L11.058 25.7459C10.8906 26.3501 10.7464 26.9688 10.6294 27.585ZM11.6378 23.9483L11.5887 24.0816L11.7219 24.1308L12.0082 24.2365L12.0574 24.1032L12.1907 24.1524C12.4022 23.5791 12.6406 23.0074 12.8991 22.4532L12.9592 22.3245L12.8305 22.2644L12.5539 22.1353L12.4251 22.0752L12.3651 22.204C12.0997 22.7729 11.855 23.3598 11.6378 23.9483ZM53.7285 23.2146L53.7837 23.3455L53.9146 23.2903L54.1958 23.1716L54.3267 23.1164L54.2715 22.9855C54.0282 22.4082 53.7573 21.8335 53.4665 21.2772L53.4007 21.1513L53.2748 21.2171L53.0043 21.3586L52.8785 21.4244L52.9443 21.5503C53.2276 22.0922 53.4914 22.6521 53.7285 23.2146ZM13.6751 20.9419L13.7456 20.8185C14.0486 20.2883 14.3777 19.7637 14.7238 19.2594L14.8041 19.1424L14.6871 19.062L14.4355 18.8892L14.3184 18.8087L14.2379 18.9259C13.8827 19.4435 13.545 19.9818 13.2339 20.5261L13.1634 20.6494L13.2868 20.7199L13.5517 20.8714L13.6751 20.9419ZM52.0253 19.9563L52.1013 20.0764L52.2214 20.0003L52.4792 19.837L52.5992 19.761L52.5232 19.641C52.1881 19.1114 51.8266 18.5889 51.4488 18.0882L51.3632 17.9748L51.2498 18.0604L51.0061 18.2444L50.8928 18.33L50.9783 18.4433C51.3464 18.9311 51.6987 19.4402 52.0253 19.9563ZM15.6269 17.8065L15.737 17.8963L15.8267 17.7861C16.2127 17.3123 16.6231 16.8487 17.0464 16.4081L17.1448 16.3057L17.0425 16.2073L16.8225 15.9957L16.7201 15.8972L16.6216 15.9997C16.1871 16.4518 15.766 16.9275 15.3698 17.4138L15.2801 17.5239L15.3902 17.6136L15.6269 17.8065ZM49.8109 17.0212L49.9055 17.1273L50.0115 17.0326L50.2392 16.8292L50.3451 16.7347L50.2506 16.6287C49.8331 16.1607 49.3911 15.7043 48.9369 15.2721L48.834 15.1742L48.7361 15.2771L48.5257 15.4984L48.4279 15.6013L48.5308 15.6992C48.9733 16.1202 49.404 16.565 49.8109 17.0212ZM18.1741 15.1222L18.2682 15.2288L18.3747 15.1347C18.8326 14.7304 19.313 14.3401 19.8025 13.9745L19.9163 13.8896L19.8314 13.7757L19.6488 13.5311L19.5638 13.4172L19.45 13.5022C18.9476 13.8774 18.4546 14.278 17.9847 14.6929L17.8782 14.7869L17.9722 14.8934L18.1741 15.1222ZM47.2575 14.5757L47.3466 14.465L47.5381 14.2272L47.6272 14.1166L47.5166 14.0275C47.0283 13.6338 46.5178 13.2557 45.9991 12.9035L45.8815 12.8236L45.8017 12.9413L45.6303 13.194L45.5506 13.3115L45.6681 13.3912C46.1735 13.7344 46.671 14.1029 47.1468 14.4865L47.2575 14.5757ZM21.1244 12.8905L21.1998 13.011L21.3202 12.9356C21.8383 12.6115 22.3759 12.3051 22.9179 12.0253L23.0441 11.9602L22.979 11.834L22.8391 11.5626L22.7739 11.4363L22.6477 11.5015C22.0912 11.7888 21.5395 12.1032 21.0077 12.4359L20.8873 12.5113L20.9626 12.6317L21.1244 12.8905ZM44.1045 12.4212L44.2283 12.4911L44.2981 12.3673L44.4481 12.1013L44.5178 11.9776L44.3942 11.9078C43.8472 11.5992 43.2815 11.3099 42.7126 11.048L42.5835 10.9886L42.5241 11.1177L42.3965 11.3951L42.3372 11.5242L42.4662 11.5835C43.0204 11.8386 43.5717 12.1204 44.1045 12.4212ZM24.3993 11.1735L24.4538 11.3046L24.585 11.2501C25.1488 11.0159 25.7292 10.8024 26.3099 10.6159L26.4451 10.5724L26.4017 10.4372L26.3084 10.1465L26.265 10.0112L26.1297 10.0546C25.5334 10.2462 24.9377 10.4653 24.3589 10.7058L24.2277 10.7603L24.2822 10.8915L24.3993 11.1735ZM40.7643 10.8841L40.8978 10.9326L40.9463 10.7991L41.0505 10.5121L41.099 10.3786L40.9655 10.3301C40.3761 10.1161 39.7703 9.9242 39.1648 9.75976L39.0278 9.72253L38.9905 9.85961L38.9105 10.1542L38.8733 10.2913L39.0103 10.3285C39.6002 10.4887 40.1903 10.6757 40.7643 10.8841ZM27.9496 9.55227L27.8113 9.58436L27.8433 9.72269L27.9085 10.0043V10.1668L28.0826 10.1265C28.6769 9.98871 29.2849 9.87403 29.8899 9.78559L30.0304 9.76504L30.0099 9.62451L29.9658 9.32237L29.9453 9.18179L29.8047 9.20233C29.1837 9.2931 28.5596 9.41079 27.9496 9.55227ZM37.2164 9.9204L37.3561 9.94616L37.3818 9.80643L37.4371 9.50616L37.4628 9.36649L37.3232 9.34074C36.7078 9.22723 36.0789 9.13805 35.4539 9.07549L35.3125 9.06134L35.2984 9.20269L35.268 9.50654L35.2538 9.6479L35.3952 9.66203C36.0042 9.72292 36.6169 9.80989 37.2164 9.9204ZM31.682 9.00656L31.5403 9.01551L31.5492 9.15727L31.5684 9.46202L31.7102 9.45307L31.7191 9.59484C32.328 9.55647 32.9482 9.54262 33.5586 9.5538L33.7007 9.5564L33.7033 9.41434L33.7088 9.109L33.7114 8.96697L33.5693 8.9644C32.9435 8.95308 32.3067 8.9671 31.682 9.00656Z" fill="#3F3D56" stroke="#3F3D56" stroke-width="0.284103"/>
<path d="M55.7674 33.5562L41.4131 47.9105L41.6288 48.1262L55.9832 33.7719L55.7674 33.5562Z" fill="#3F3D56"/>
<path d="M37.0049 49.858H19.8691V50.0896H37.0049V49.858Z" fill="#3F3D56"/>
<path d="M39.7837 52.8683C39.2341 52.8683 38.6968 52.7054 38.2399 52.4C37.7829 52.0947 37.4267 51.6607 37.2164 51.153C37.0061 50.6452 36.9511 50.0865 37.0583 49.5475C37.1655 49.0084 37.4301 48.5133 37.8188 48.1247C38.2074 47.7361 38.7025 47.4714 39.2415 47.3642C39.7806 47.257 40.3393 47.312 40.847 47.5223C41.3548 47.7326 41.7888 48.0888 42.0941 48.5458C42.3994 49.0027 42.5624 49.54 42.5624 50.0896C42.5616 50.8263 42.2686 51.5326 41.7476 52.0536C41.2267 52.5745 40.5204 52.8675 39.7837 52.8683ZM39.7837 47.6114C39.2935 47.6114 38.8144 47.7567 38.4068 48.029C37.9993 48.3013 37.6817 48.6884 37.4941 49.1412C37.3065 49.594 37.2575 50.0923 37.3531 50.573C37.4487 51.0538 37.6847 51.4953 38.0313 51.8419C38.3779 52.1885 38.8195 52.4245 39.3002 52.5201C39.7809 52.6158 40.2792 52.5667 40.732 52.3791C41.1848 52.1915 41.5719 51.8739 41.8442 51.4664C42.1165 51.0588 42.2618 50.5797 42.2618 50.0896C42.2611 49.4325 41.9998 48.8026 41.5352 48.338C41.0706 47.8735 40.4407 47.6121 39.7837 47.6114V47.6114Z" fill="#3F3D56"/>
<path d="M13.6169 28.0909C12.9479 28.0909 12.2854 28.2223 11.6673 28.4774C11.0492 28.7326 10.4876 29.1066 10.0146 29.578C9.54152 30.0495 9.16627 30.6092 8.91025 31.2252C8.65423 31.8412 8.52246 32.5014 8.52246 33.1682C8.52246 35.9723 13.6169 45.2267 13.6169 45.2267C13.6169 45.2267 18.7113 35.9723 18.7113 33.1682C18.7113 32.5014 18.5795 31.8412 18.3235 31.2252C18.0675 30.6092 17.6922 30.0495 17.2192 29.578C16.7461 29.1066 16.1845 28.7326 15.5664 28.4774C14.9483 28.2223 14.2859 28.0909 13.6169 28.0909V28.0909ZM13.6169 35.8338C13.0879 35.8338 12.5708 35.6774 12.131 35.3845C11.6911 35.0916 11.3483 34.6753 11.1459 34.1883C10.9435 33.7012 10.8905 33.1652 10.9937 32.6482C11.0969 32.1311 11.3516 31.6562 11.7257 31.2834C12.0997 30.9106 12.5763 30.6567 13.0951 30.5539C13.6139 30.451 14.1517 30.5038 14.6404 30.7056C15.1291 30.9073 15.5468 31.2489 15.8407 31.6873C16.1346 32.1256 16.2914 32.641 16.2914 33.1682C16.2914 33.8752 16.0096 34.5531 15.5081 35.053C15.0065 35.5529 14.3262 35.8338 13.6169 35.8338V35.8338Z" fill="#F46036"/>
<path d="M55.7614 10.2605C54.4103 10.2605 53.1145 10.7954 52.1591 11.7476C51.2037 12.6998 50.667 13.9912 50.667 15.3378C50.667 18.1418 55.7614 27.3962 55.7614 27.3962C55.7614 27.3962 60.8558 18.1418 60.8558 15.3378C60.8558 14.671 60.724 14.0108 60.468 13.3948C60.212 12.7788 59.8368 12.2191 59.3637 11.7476C58.8906 11.2761 58.329 10.9021 57.7109 10.647C57.0929 10.3918 56.4304 10.2605 55.7614 10.2605V10.2605ZM55.7614 18.0033C55.2324 18.0033 54.7153 17.847 54.2755 17.5541C53.8357 17.2612 53.4929 16.8449 53.2904 16.3578C53.088 15.8708 53.035 15.3348 53.1382 14.8177C53.2414 14.3007 53.4962 13.8257 53.8702 13.4529C54.2442 13.0801 54.7208 12.8263 55.2396 12.7234C55.7584 12.6206 56.2962 12.6734 56.7849 12.8751C57.2736 13.0769 57.6913 13.4185 57.9852 13.8569C58.2791 14.2952 58.436 14.8106 58.436 15.3378C58.436 16.0447 58.1542 16.7227 57.6526 17.2226C57.151 17.7225 56.4707 18.0033 55.7614 18.0033V18.0033Z" fill="#F46036"/>
<path d="M59.8041 34.183L61.3242 34.1838L61.3243 33.9425L59.8042 33.9417L59.8041 34.183Z" fill="#3F3D56"/>
<path d="M48.8145 33.9962L49.1281 34.0687L61.0479 34.0751L61.1551 33.8254C61.342 33.397 61.4062 32.9251 61.3404 32.4624C61.2891 32.1175 61.1604 31.7747 60.8683 31.6259L60.3393 28.1027L53.7447 28.0909L51.1932 30.1488C51.1932 30.1488 49.9897 30.1272 49.3358 30.9412C49.1 31.2439 48.9607 31.6106 48.9362 31.9935L48.9104 32.417L48.8145 33.9962Z" fill="#F46036"/>
<path d="M51.4318 35.4091C52.2447 35.4091 52.9037 34.7501 52.9037 33.9372C52.9037 33.1243 52.2447 32.4653 51.4318 32.4653C50.6189 32.4653 49.96 33.1243 49.96 33.9372C49.96 34.7501 50.6189 35.4091 51.4318 35.4091Z" fill="#3F3D56"/>
<path d="M51.4329 34.7119C51.8607 34.7119 52.2076 34.3651 52.2076 33.9373C52.2076 33.5094 51.8607 33.1626 51.4329 33.1626C51.005 33.1626 50.6582 33.5094 50.6582 33.9373C50.6582 34.3651 51.005 34.7119 51.4329 34.7119Z" fill="#CCCCCC"/>
<path d="M58.6955 35.4131C59.5084 35.4131 60.1674 34.7541 60.1674 33.9412C60.1674 33.1283 59.5084 32.4694 58.6955 32.4694C57.8826 32.4694 57.2236 33.1283 57.2236 33.9412C57.2236 34.7541 57.8826 35.4131 58.6955 35.4131Z" fill="#3F3D56"/>
<path d="M58.6946 34.7157C59.1224 34.7157 59.4693 34.3689 59.4693 33.9411C59.4693 33.5132 59.1224 33.1664 58.6946 33.1664C58.2668 33.1664 57.9199 33.5132 57.9199 33.9411C57.9199 34.3689 58.2668 34.7157 58.6946 34.7157Z" fill="#CCCCCC"/>
<path d="M52.207 29.9083L55.7676 29.9098H56.2022L56.936 29.9103V29.8568L56.9366 29.2115L56.9371 28.4869H56.4489L56.0142 28.4864L55.2443 28.4859H54.8097L53.9208 28.4854L52.207 29.9083Z" fill="#F46036"/>
<path d="M57.5156 29.9109L59.3974 29.9119L59.3978 29.5426V28.8973L59.3984 28.4884H59.1228L58.6882 28.4879L57.5162 28.4874L57.5156 29.9109Z" fill="#F46036"/>
<path d="M56.6943 31.4307L56.9355 31.4308L56.9358 30.9723L56.6945 30.9722L56.6943 31.4307Z" fill="#3F3D56"/>
<path d="M53.1717 30.5601L53.1719 30.3188L52.7134 30.3186L52.7133 30.5599L53.1717 30.5601Z" fill="#3F3D56"/>
<path d="M53.002 30.4249L52.9754 30.4249C52.9092 30.4249 52.8436 30.4118 52.7824 30.3864C52.7213 30.361 52.6657 30.3239 52.6189 30.277C52.5721 30.2302 52.535 30.1745 52.5097 30.1133C52.4844 30.0522 52.4713 29.9866 52.4714 29.9203V29.9203C52.4714 29.8541 52.4845 29.7885 52.5099 29.7274C52.5352 29.6662 52.5724 29.6106 52.6193 29.5638C52.6661 29.517 52.7217 29.4799 52.7829 29.4546C52.8441 29.4293 52.9097 29.4163 52.9759 29.4163L53.0025 29.4163L53.002 30.4249Z" fill="#3F3D56"/>
<path d="M48.9102 32.4169C49.0926 32.4368 49.2762 32.3916 49.4287 32.2893C49.5811 32.1871 49.6926 32.0343 49.7434 31.8579C49.7943 31.6816 49.7812 31.4929 49.7066 31.3252C49.632 31.1575 49.5007 31.0215 49.3356 30.9412C49.0998 31.2438 48.9605 31.6105 48.936 31.9935L48.9102 32.4169Z" fill="#3F3D56"/>
<path d="M56.0137 28.4865L56.9355 29.8568L56.936 29.2115L56.4483 28.4869L56.0137 28.4865Z" fill="#F3F3F3"/>
<path d="M58.6875 28.488L59.3971 29.5428V28.8974L59.1221 28.4886L58.6875 28.488Z" fill="#F3F3F3"/>
<path d="M54.8096 28.4861L55.7675 29.91H56.2021L55.2442 28.4861H54.8096Z" fill="#F3F3F3"/>
<path d="M10.5465 52.2448L9.02637 52.2456L9.02624 52.0043L10.5464 52.0035L10.5465 52.2448Z" fill="#3F3D56"/>
<path d="M21.5371 52.0581L21.2235 52.1306L9.30364 52.137L9.19646 51.8873C9.00951 51.4589 8.94535 50.987 9.01114 50.5243C9.06247 50.1793 9.19112 49.8366 9.4833 49.6878L10.0123 46.1646L16.6069 46.1528L19.1583 48.2107C19.1583 48.2107 20.3619 48.1891 21.0157 49.0031C21.2516 49.3058 21.3909 49.6725 21.4154 50.0554L21.4412 50.4789L21.5371 52.0581Z" fill="#F46036"/>
<path d="M18.9197 53.471C18.1068 53.471 17.4478 52.812 17.4478 51.9991C17.4478 51.1862 18.1068 50.5272 18.9197 50.5272C19.7326 50.5272 20.3916 51.1862 20.3916 51.9991C20.3916 52.812 19.7326 53.471 18.9197 53.471Z" fill="#3F3D56"/>
<path d="M18.9197 52.7737C18.4918 52.7737 18.145 52.4269 18.145 51.999C18.145 51.5712 18.4918 51.2244 18.9197 51.2244C19.3475 51.2244 19.6943 51.5712 19.6943 51.999C19.6943 52.4269 19.3475 52.7737 18.9197 52.7737Z" fill="#CCCCCC"/>
<path d="M11.657 53.4749C10.8441 53.4749 10.1851 52.8159 10.1851 52.003C10.1851 51.1901 10.8441 50.5311 11.657 50.5311C12.4699 50.5311 13.1289 51.1901 13.1289 52.003C13.1289 52.8159 12.4699 53.4749 11.657 53.4749Z" fill="#3F3D56"/>
<path d="M11.657 52.7776C11.2291 52.7776 10.8823 52.4308 10.8823 52.0029C10.8823 51.5751 11.2291 51.2283 11.657 51.2283C12.0848 51.2283 12.4316 51.5751 12.4316 52.0029C12.4316 52.4308 12.0848 52.7776 11.657 52.7776Z" fill="#CCCCCC"/>
<path d="M18.1445 47.9702L14.584 47.9717H14.1493L13.4155 47.9722V47.9187L13.415 47.2734L13.4145 46.5488H13.9027L14.3374 46.5483L15.1072 46.5478H15.5419L16.4307 46.5472L18.1445 47.9702Z" fill="#F46036"/>
<path d="M12.8359 47.9727L10.9542 47.9738L10.9537 47.6045V46.9592L10.9532 46.5503H11.2287L11.6634 46.5498L12.8354 46.5493L12.8359 47.9727Z" fill="#F46036"/>
<path d="M13.6583 49.4924L13.417 49.4926L13.4167 49.0341L13.658 49.034L13.6583 49.4924Z" fill="#3F3D56"/>
<path d="M17.1798 48.6219L17.1797 48.3806L17.6381 48.3804L17.6383 48.6217L17.1798 48.6219Z" fill="#3F3D56"/>
<path d="M17.3496 48.4867L17.3762 48.4867C17.4424 48.4866 17.5079 48.4736 17.5691 48.4482C17.6303 48.4228 17.6859 48.3856 17.7327 48.3388C17.7795 48.2919 17.8166 48.2363 17.8419 48.1751C17.8672 48.1139 17.8802 48.0483 17.8802 47.9821V47.9821C17.8802 47.9159 17.8671 47.8503 17.8417 47.7891C17.8163 47.728 17.7791 47.6724 17.7323 47.6256C17.6854 47.5788 17.6298 47.5417 17.5686 47.5164C17.5074 47.4911 17.4418 47.478 17.3756 47.4781L17.3491 47.4781L17.3496 48.4867Z" fill="#3F3D56"/>
<path d="M21.4414 50.4788C21.2589 50.4987 21.0753 50.4535 20.9229 50.3512C20.7705 50.249 20.659 50.0962 20.6082 49.9198C20.5573 49.7435 20.5703 49.5548 20.6449 49.3871C20.7195 49.2194 20.8509 49.0834 21.0159 49.0031C21.2518 49.3057 21.3911 49.6724 21.4156 50.0554L21.4414 50.4788Z" fill="#3F3D56"/>
<path d="M14.3379 46.5482L13.4161 47.9186L13.4155 47.2733L13.9032 46.5487L14.3379 46.5482Z" fill="#F3F3F3"/>
<path d="M11.6641 46.5498L10.9544 47.6045V46.9592L11.2294 46.5504L11.6641 46.5498Z" fill="#F3F3F3"/>
<path d="M15.542 46.5477L14.5841 47.9716H14.1494L15.1073 46.5477H15.542Z" fill="#F3F3F3"/>
<path d="M40.8307 63.5341L39.3105 63.5349L39.3104 63.2936L40.8306 63.2928L40.8307 63.5341Z" fill="#3F3D56"/>
<path d="M51.8223 63.3474L51.5086 63.4199L39.5888 63.4263L39.4816 63.1766C39.2947 62.7482 39.2305 62.2763 39.2963 61.8136C39.3476 61.4687 39.4763 61.1259 39.7685 60.9771L40.2974 57.4539L46.892 57.4421L49.4435 59.5C49.4435 59.5 50.647 59.4784 51.3009 60.2924C51.5368 60.5951 51.676 60.9618 51.7005 61.3447L51.7264 61.7682L51.8223 63.3474Z" fill="#F46036"/>
<path d="M49.2049 64.7603C48.392 64.7603 47.733 64.1013 47.733 63.2884C47.733 62.4755 48.392 61.8165 49.2049 61.8165C50.0178 61.8165 50.6768 62.4755 50.6768 63.2884C50.6768 64.1013 50.0178 64.7603 49.2049 64.7603Z" fill="#3F3D56"/>
<path d="M49.2048 64.063C48.777 64.063 48.4301 63.7162 48.4301 63.2883C48.4301 62.8605 48.777 62.5137 49.2048 62.5137C49.6327 62.5137 49.9795 62.8605 49.9795 63.2883C49.9795 63.7162 49.6327 64.063 49.2048 64.063Z" fill="#CCCCCC"/>
<path d="M41.9412 64.7642C41.1283 64.7642 40.4693 64.1052 40.4693 63.2923C40.4693 62.4794 41.1283 61.8204 41.9412 61.8204C42.7541 61.8204 43.4131 62.4794 43.4131 63.2923C43.4131 64.1052 42.7541 64.7642 41.9412 64.7642Z" fill="#3F3D56"/>
<path d="M41.9411 64.0669C41.5133 64.0669 41.1665 63.7201 41.1665 63.2923C41.1665 62.8644 41.5133 62.5176 41.9411 62.5176C42.369 62.5176 42.7158 62.8644 42.7158 63.2923C42.7158 63.7201 42.369 64.0669 41.9411 64.0669Z" fill="#CCCCCC"/>
<path d="M48.4297 59.2595L44.8691 59.261H44.4345L43.7007 59.2615V59.208L43.7002 58.5627L43.6996 57.8381H44.1879L44.6225 57.8376L45.3924 57.8371H45.827L46.7159 57.8365L48.4297 59.2595Z" fill="#F46036"/>
<path d="M43.1211 59.262L41.2393 59.2631L41.2389 58.8938V58.2485L41.2383 57.8396H41.5139L41.9485 57.8391L43.1205 57.8386L43.1211 59.262Z" fill="#F46036"/>
<path d="M43.9434 60.7817L43.7021 60.7819L43.7019 60.3234L43.9432 60.3233L43.9434 60.7817Z" fill="#3F3D56"/>
<path d="M47.465 59.9112L47.4648 59.6699L47.9233 59.6697L47.9234 59.911L47.465 59.9112Z" fill="#3F3D56"/>
<path d="M47.6338 59.776L47.6603 59.776C47.7266 59.776 47.7921 59.7629 47.8533 59.7375C47.9145 59.7121 47.97 59.6749 48.0169 59.6281C48.0637 59.5812 48.1008 59.5256 48.1261 59.4644C48.1514 59.4032 48.1644 59.3376 48.1644 59.2714V59.2714C48.1643 59.2052 48.1512 59.1396 48.1259 59.0785C48.1005 59.0173 48.0633 58.9617 48.0165 58.9149C47.9696 58.8681 47.914 58.831 47.8528 58.8057C47.7916 58.7804 47.726 58.7674 47.6598 58.7674L47.6332 58.7674L47.6338 59.776Z" fill="#3F3D56"/>
<path d="M51.7266 61.7681C51.5441 61.788 51.3605 61.7428 51.208 61.6405C51.0556 61.5383 50.9442 61.3855 50.8933 61.2091C50.8425 61.0328 50.8555 60.8441 50.9301 60.6764C51.0047 60.5087 51.1361 60.3727 51.3011 60.2924C51.537 60.595 51.6762 60.9617 51.7008 61.3447L51.7266 61.7681Z" fill="#3F3D56"/>
<path d="M44.623 57.8375L43.7012 59.2079L43.7007 58.5626L44.1884 57.838L44.623 57.8375Z" fill="#F3F3F3"/>
<path d="M41.9492 57.8391L41.2396 58.8938V58.2485L41.5146 57.8397L41.9492 57.8391Z" fill="#F3F3F3"/>
<path d="M45.8271 57.837L44.8692 59.2609H44.4346L45.3925 57.837H45.8271Z" fill="#F3F3F3"/>
<path d="M29.5674 40.3447C30.5873 40.3447 31.414 39.5179 31.414 38.498C31.414 37.4782 30.5873 36.6514 29.5674 36.6514C28.5475 36.6514 27.7207 37.4782 27.7207 38.498C27.7207 39.5179 28.5475 40.3447 29.5674 40.3447Z" fill="#A4A2BA"/>
<path d="M29.5674 58.8253C30.5873 58.8253 31.414 57.9985 31.414 56.9786C31.414 55.9587 30.5873 55.132 29.5674 55.132C28.5475 55.132 27.7207 55.9587 27.7207 56.9786C27.7207 57.9985 28.5475 58.8253 29.5674 58.8253Z" fill="#A4A2BA"/>
<path d="M41.9053 32.6832C42.9252 32.6832 43.7519 31.8564 43.7519 30.8365C43.7519 29.8167 42.9252 28.9899 41.9053 28.9899C40.8854 28.9899 40.0586 29.8167 40.0586 30.8365C40.0586 31.8564 40.8854 32.6832 41.9053 32.6832Z" fill="#A4A2BA"/>
<path d="M27.417 25.2965C28.4369 25.2965 29.2637 24.4697 29.2637 23.4498C29.2637 22.4299 28.4369 21.6031 27.417 21.6031C26.3971 21.6031 25.5703 22.4299 25.5703 23.4498C25.5703 24.4697 26.3971 25.2965 27.417 25.2965Z" fill="#A4A2BA"/>
<path d="M59.1076 53.7066L58.9443 53.6451C58.9084 53.6315 55.3368 52.2565 53.6637 49.1387C51.9905 46.0208 52.8098 42.2668 52.8183 42.2293L52.8569 42.0583L53.0201 42.1199C53.056 42.1335 56.6275 43.5085 58.3007 46.6262C59.9739 49.7442 59.1546 53.4981 59.1461 53.5356L59.1076 53.7066ZM53.9316 48.9936C55.3462 51.6297 58.1686 52.981 58.8837 53.2894C59.0197 52.5193 59.4461 49.4049 58.0328 46.7714C56.6196 44.1381 53.7961 42.7848 53.0807 42.4755C52.9447 43.2461 52.5184 46.3602 53.9316 48.9936Z" fill="#3F3D56"/>
<path d="M54.827 47.972C57.8743 49.8514 59.0479 53.5845 59.0479 53.5845C59.0479 53.5845 55.2809 54.2704 52.2336 52.391C49.1863 50.5116 48.0127 46.7785 48.0127 46.7785C48.0127 46.7785 51.7797 46.0926 54.827 47.972Z" fill="#F46036"/>
</svg>
