<svg width="314" height="244" viewBox="0 0 314 244" fill="none" xmlns="http://www.w3.org/2000/svg">
<path d="M240.372 221.213C249.606 221.213 257.091 205.94 257.091 187.099C257.091 168.258 249.606 152.984 240.372 152.984C231.138 152.984 223.652 168.258 223.652 187.099C223.652 205.94 231.138 221.213 240.372 221.213Z" fill="#3F3D56"/>
<path d="M238.829 242.939C245.525 202.762 238.896 162.731 238.828 162.331L237.526 162.552C237.593 162.949 244.184 202.771 237.525 242.722L238.829 242.939Z" fill="#CACACA"/>
<path d="M225.653 179.763L225.029 180.928L240.148 189.015L240.771 187.85L225.653 179.763Z" fill="#CACACA"/>
<path d="M256.105 183.814L240.988 191.906L241.612 193.071L256.729 184.979L256.105 183.814Z" fill="#CACACA"/>
<path d="M280.545 199.832C298.605 199.832 313.246 169.959 313.246 133.108C313.246 96.2576 298.605 66.3844 280.545 66.3844C262.485 66.3844 247.844 96.2576 247.844 133.108C247.844 169.959 262.485 199.832 280.545 199.832Z" fill="#E6E6E6"/>
<path d="M276.903 242.22C289.983 163.743 277.035 85.552 276.902 84.7714L275.6 84.992C275.732 85.7707 288.642 163.752 275.6 242.004L276.903 242.22Z" fill="#CACACA"/>
<path d="M251.455 119.317L250.832 120.482L280.403 136.299L281.027 135.134L251.455 119.317Z" fill="#CACACA"/>
<path d="M311.612 127.24L282.045 143.066L282.668 144.231L312.236 128.405L311.612 127.24Z" fill="#CACACA"/>
<path d="M204.596 242.43H30.6561C30.0164 242.429 29.4031 242.175 28.9507 241.723C28.4984 241.27 28.2439 240.657 28.2432 240.017V130.108C28.2439 129.468 28.4983 128.854 28.9507 128.402C29.4031 127.95 30.0164 127.695 30.6561 127.695H204.596C205.236 127.695 205.849 127.95 206.301 128.402C206.754 128.855 207.008 129.468 207.009 130.108V240.017C207.008 240.657 206.754 241.27 206.301 241.723C205.849 242.175 205.236 242.429 204.596 242.43V242.43Z" fill="#E4E4E4"/>
<path d="M46.6523 141.013C46.3781 141.014 46.1153 141.123 45.9214 141.317C45.7275 141.51 45.6185 141.773 45.6182 142.047V228.077C45.6185 228.352 45.7275 228.614 45.9214 228.808C46.1153 229.002 46.3781 229.111 46.6523 229.112H188.6C188.874 229.111 189.137 229.002 189.331 228.808C189.525 228.614 189.634 228.352 189.634 228.077V142.047C189.634 141.773 189.525 141.51 189.331 141.317C189.137 141.123 188.874 141.014 188.6 141.013H46.6523Z" fill="white"/>
<path d="M189.978 163.171V157.72H169.904V140.669H164.453V157.72H128.715V140.669H123.263V157.72H68.1421V140.669H62.6905V157.72H43.6299V163.171H62.6905V184.372H43.6299V189.823H62.6905V212.538H43.6299V217.99H92.0683V229.456H97.5199V217.99H123.263V229.456H128.715V217.99H189.978V212.538H128.715V189.823H189.978V184.372H169.904V163.171H189.978ZM123.263 163.171V169.834H68.1421V163.171H123.263ZM68.1421 175.286H123.263V184.372H68.1421V175.286ZM68.1421 212.538V189.823H92.0683V212.538H68.1421ZM123.263 212.538H97.5199V189.823H123.263V212.538ZM164.453 184.372H128.715V163.171H164.453V184.372Z" fill="#E6E6E6"/>
<path d="M125.99 194.753C129.837 194.753 132.956 191.634 132.956 187.787C132.956 183.94 129.837 180.821 125.99 180.821C122.143 180.821 119.024 183.94 119.024 187.787C119.024 191.634 122.143 194.753 125.99 194.753Z" fill="#F46036"/>
<path d="M313.864 243.02H0V242.268H314L313.864 243.02Z" fill="#CACACA"/>
<path d="M126.826 146.406C150.557 146.406 169.796 127.168 169.796 103.436C169.796 79.7044 150.557 60.4661 126.826 60.4661C103.094 60.4661 83.8555 79.7044 83.8555 103.436C83.8555 127.168 103.094 146.406 126.826 146.406Z" fill="#F46036"/>
<path d="M127.245 173.289L113.669 150.099L100.094 126.908L126.965 126.747L153.836 126.585L140.54 149.937L127.245 173.289Z" fill="#F46036"/>
<path d="M127.169 118.583C135.684 118.583 142.586 111.681 142.586 103.166C142.586 94.6515 135.684 87.749 127.169 87.749C118.654 87.749 111.752 94.6515 111.752 103.166C111.752 111.681 118.654 118.583 127.169 118.583Z" fill="white"/>
<path d="M125.831 0.220673C125.831 0.220673 116.636 -2.36939 113.917 10.1924C111.197 22.7541 112.925 21.1714 112.925 21.1714L133.451 18.7756C133.451 18.7756 139.623 4.04099 125.831 0.220673Z" fill="#2F2E41"/>
<path d="M112.459 55.3296C112.459 55.3296 98.5872 55.9717 100.989 61.4167C101.159 61.8016 101.317 62.1623 101.464 62.4986C103.181 66.4425 105.157 70.2684 107.38 73.951L115.906 88.0771L119.008 86.3536L110.278 63.6588L118.125 63.0182L112.459 55.3296Z" fill="#FFB6B6"/>
<path d="M149.034 61.0965L153.518 70.8655C153.518 70.8655 156.881 74.2287 160.564 87.6811C164.248 101.134 165.049 100.653 165.049 100.653L161.408 101.866L146.471 74.7091L139.104 65.4205L141.347 60.4559L149.034 61.0965Z" fill="#FFB6B6"/>
<path d="M143.588 49.8859L150.032 61.8789C150.032 61.8789 164.641 90.5853 163.131 90.4899C161.434 90.3828 156.666 92.3611 155.202 94.2818C154.496 95.2088 144.172 72.565 140.545 67.5022L132.698 61.4166C132.698 61.4166 110.417 65.1666 110.39 63.9472C110.377 63.3499 117.767 77.6813 116.25 77.0462C114.522 76.3228 110.458 79.8431 108.666 79.1145C107.927 78.8139 102.704 66.1494 100.589 60.9599C100.324 60.3121 100.31 59.5885 100.551 58.9311C100.791 58.2736 101.268 57.7297 101.889 57.4057C103.478 56.5793 125.557 51.5376 125.557 51.5376L125.171 49.5656L126.773 46.3627L143.588 49.8859Z" fill="#2F2E41"/>
<path d="M130.376 14.5323C130.928 11.1274 128.616 7.91924 125.211 7.36671C121.806 6.81418 118.598 9.12648 118.045 12.5314C117.493 15.9363 119.805 19.1444 123.21 19.697C126.615 20.2495 129.823 17.9372 130.376 14.5323Z" fill="#FFB6B6"/>
<path d="M144.172 50.8484C144.517 51.8831 142.284 52.4774 139.17 51.896C136.477 51.3932 133.528 50.7958 131.203 50.3122C128.713 49.7933 126.934 49.4057 126.934 49.4057C126.934 49.4057 126.293 53.4094 124.211 52.929C122.417 52.5158 117.057 33.7929 115.608 28.6185C115.502 28.2407 115.522 27.8386 115.666 27.4735C115.81 27.1083 116.069 26.8001 116.404 26.5958L123.766 22.1005C123.766 22.1005 128.839 20.358 130.689 20.3084C132.539 20.2588 135.742 19.7783 135.742 19.7783C135.742 19.7783 139.425 20.0986 140.066 22.8211C140.706 25.5436 143.379 41.6857 143.429 45.5622C143.483 49.8143 143.138 47.746 144.172 50.8484Z" fill="#CACACA"/>
<path d="M126.546 5.50928C126.546 5.50928 123.956 12.3729 117.61 15.222L116.574 9.13535L126.546 5.50928Z" fill="#2F2E41"/>
<path d="M130.296 12.8117C130.782 12.8117 131.177 12.0589 131.177 11.1302C131.177 10.2015 130.782 9.44861 130.296 9.44861C129.809 9.44861 129.415 10.2015 129.415 11.1302C129.415 12.0589 129.809 12.8117 130.296 12.8117Z" fill="#FFB6B6"/>
<path d="M121.59 89.6785L109.209 95.3705L109.137 95.2139C108.55 93.9358 108.494 92.4767 108.982 91.1575C109.47 89.8383 110.462 88.767 111.74 88.1794L111.741 88.1792L119.303 84.7028L121.59 89.6785Z" fill="#2F2E41"/>
<path d="M159.562 101.05L167.157 97.6458L167.157 97.6456C168.441 97.0704 169.901 97.0285 171.215 97.5293C172.53 98.0301 173.591 99.0325 174.167 100.316L174.237 100.473L161.803 106.047L159.562 101.05Z" fill="#2F2E41"/>
<path opacity="0.2" d="M139.002 36.0256L137.552 51.9723L140.129 52.094L139.002 36.0256Z" fill="black"/>
<path d="M128.895 65.8162C129.202 65.4733 129.43 65.0672 129.564 64.6265C129.697 64.1858 129.732 63.7212 129.666 63.2655C129.601 62.8098 129.436 62.3741 129.183 61.989C128.931 61.6039 128.597 61.2788 128.206 61.0367L122.636 32.8993L116.239 35.3465L123.726 62.2351C123.363 62.9198 123.263 63.714 123.446 64.4672C123.63 65.2204 124.083 65.8802 124.72 66.3216C125.357 66.7631 126.134 66.9554 126.903 66.8623C127.673 66.7691 128.382 66.3969 128.895 65.8162Z" fill="#FFB6B6"/>
<path d="M124.045 37.6415L117.021 38.8786C116.821 38.9138 116.616 38.9055 116.42 38.8543C116.224 38.8031 116.041 38.7101 115.883 38.5818C115.726 38.4535 115.599 38.2928 115.509 38.1107C115.42 37.9286 115.37 37.7293 115.365 37.5265L115.171 30.419C114.997 29.3955 115.235 28.3445 115.834 27.4967C116.434 26.6488 117.345 26.0732 118.368 25.8961C119.391 25.719 120.443 25.9548 121.292 26.5519C122.141 27.149 122.719 28.0586 122.899 29.0812L125.14 35.8048C125.204 35.9974 125.226 36.2014 125.204 36.4032C125.182 36.6049 125.117 36.7996 125.013 36.9739C124.909 37.1482 124.769 37.298 124.602 37.4132C124.435 37.5284 124.245 37.6063 124.045 37.6415H124.045Z" fill="#CACACA"/>
<path d="M134.28 65.3213C134.681 65.095 135.027 64.7835 135.295 64.4088C135.562 64.0341 135.744 63.6053 135.828 63.1526C135.912 62.6999 135.896 62.2344 135.78 61.7887C135.665 61.343 135.453 60.9281 135.16 60.5732L138.906 32.1355L132.063 32.4023L130.532 60.2717C129.968 60.8038 129.619 61.5242 129.551 62.2964C129.483 63.0685 129.701 63.8388 130.163 64.4612C130.625 65.0836 131.299 65.515 132.058 65.6735C132.817 65.832 133.607 65.7067 134.28 65.3213V65.3213Z" fill="#FFB6B6"/>
<path d="M138.72 37.0791L131.671 35.9986C131.47 35.9679 131.279 35.8943 131.109 35.7828C130.939 35.6713 130.796 35.5246 130.688 35.3527C130.58 35.1807 130.511 34.9876 130.485 34.7864C130.458 34.5852 130.476 34.3807 130.535 34.1868L132.631 27.3924C132.794 26.367 133.357 25.4481 134.196 24.8372C135.036 24.2263 136.083 23.9733 137.109 24.1336C138.135 24.2939 139.055 24.8545 139.669 25.6924C140.282 26.5303 140.538 27.5771 140.38 28.6034L140.346 35.6904C140.345 35.8934 140.3 36.0937 140.215 36.2777C140.13 36.4618 140.005 36.6253 139.851 36.7571C139.697 36.8888 139.516 36.9858 139.321 37.0414C139.126 37.0969 138.921 37.1098 138.72 37.0791V37.0791Z" fill="#CACACA"/>
</svg>
